@startuml

class Window {
-WindowManager mWindowManager
}
class WindowManager
WindowManager <-- Window:关联关系

class Company
class Department
Company o-- Department:聚合关系

class Bird
class Wing
Bird *-- Wing:组合关系

abstract class Factory
class CarFactory
Factory <|-- CarFactory:泛化关系，也就是继承关系

interface IColorDraw{
    draw()
}
class RedColorDraw{
    draw()
}
IColorDraw <|.. RedColorDraw:实现关系

class ImageLoader{
    loadImage(ImageInfo)
}
class ImageInfo{
}
ImageInfo <.. ImageLoader :依赖关系

enum currency{
 USD, CND
}

@enduml